<?xml version="1.0" encoding="utf-8"?>
<!-- Svg Vector Icons : http://www.onlinewebfonts.com/icon -->
<!DOCTYPE svg PUBLIC "-//W3C//DTD SVG 1.1//EN" "http://www.w3.org/Graphics/SVG/1.1/DTD/svg11.dtd">
<svg version="1.1" xmlns="http://www.w3.org/2000/svg" xmlns:xlink="http://www.w3.org/1999/xlink" x="0px" y="0px" viewBox="0 0 1000 1000" enable-background="new 0 0 1000 1000" xml:space="preserve">
<metadata> Svg Vector Icons : http://www.onlinewebfonts.com/icon </metadata>
<g><g><path d="M879,360.5h-23.5V247c0-0.7-0.1-1.4-0.2-2.1c0-4.5-1.5-8.9-4.6-12.4L661.8,16.6c-0.1-0.1-0.1-0.1-0.2-0.1c-1.1-1.3-2.4-2.3-3.8-3.2c-0.4-0.3-0.8-0.5-1.3-0.7c-1.2-0.7-2.5-1.2-3.8-1.6c-0.4-0.1-0.7-0.2-1-0.3c-1.4-0.3-2.9-0.5-4.4-0.5H182.9c-21.2,0-38.4,17.2-38.4,38.4v312.1H121c-30.3,0-54.9,24.6-54.9,54.9v285.6c0,30.3,24.6,54.9,54.9,54.9h23.5v195.5c0,21.2,17.2,38.4,38.4,38.4h634.1c21.2,0,38.4-17.2,38.4-38.4V756H879c30.3,0,54.9-24.6,54.9-54.9V415.5C933.9,385.1,909.3,360.5,879,360.5z M182.9,48.4h445.2v196.6c0,10.6,8.6,19.2,19.2,19.2h169.8v96.3H182.9V48.4z M645.5,691.8l-18.7,50.2c-40.9-11.9-74.9-24.3-113.2-40.5c-6.4-2.5-13.2-3.8-20-4.2c-64.7-4.2-125.2-51.9-125.2-145.6c0-86,54.5-150.7,140.1-150.7c87.7,0,135.8,66.4,135.8,144.8c0,65.2-30.2,111.1-68.1,128.1v1.7C598.2,682,622.9,687.1,645.5,691.8z M140.5,679.5l13.2-53.6c17.4,8.9,44.3,17.9,71.9,17.9c29.8,0,45.5-12.4,45.5-31.1c0-17.9-13.6-28.1-48.1-40.4c-47.7-16.6-78.8-43-78.8-84.7c0-49,40.9-86.4,108.6-86.4c32.4,0,56.2,6.8,73.2,14.5l-14.5,52.4c-11.5-5.5-31.9-13.6-60-13.6c-28.1,0-41.7,12.8-41.7,27.7c0,18.3,16.2,26.4,53.2,40.4c50.7,18.7,74.5,45.1,74.5,85.6c0,48.1-37,89-115.8,89C189,696.9,156.7,688.4,140.5,679.5z M817.1,941.2H182.9V756h634.1L817.1,941.2L817.1,941.2z M866.1,692.7H686.8V405.7h65.1v232.4h114.1L866.1,692.7L866.1,692.7z" fill="#FFFFFF"/><path d="M506.7,452.5c-44.3,0-69.8,43.4-69.8,97.1c-0.4,54.5,26,96.2,69.4,96.2c43.8,0,69.4-41.3,69.4-97.5C575.7,496,551,452.5,506.7,452.5z" fill="#FFFFFF"/></g><g></g><g></g><g></g><g></g><g></g><g></g><g></g><g></g><g></g><g></g><g></g><g></g><g></g><g></g><g></g></g>
</svg>